<!-- icon666.com - MILLIONS vector ICONS FREE --><svg viewBox="-35 0 511 511.552" xmlns="http://www.w3.org/2000/svg"><path d="m381.523438 171.121094h-44.71875v-28.015625c0-8.839844-7.164063-16-16-16h-304.527344c-8.839844 0-16 7.160156-16 16v219.390625c.058594 52.214844 42.375 94.53125 94.589844 94.59375h147.34375c47.863281-.042969 88.171874-35.796875 93.921874-83.3125h45.457032c33.148437-.035156 60.019531-26.898438 60.0625-60.050782v-82.558593c-.042969-33.175781-26.953125-60.046875-60.128906-60.046875zm-76.71875 191.375c-.042969 34.550781-28.042969 62.546875-62.59375 62.59375h-147.34375c-34.550782-.046875-62.546876-28.042969-62.589844-62.59375v-203.390625h80v54.671875h-16c-8.839844 0-16 7.160156-16 16v80c0 8.835937 7.160156 16 16 16h64c8.835937 0 16-7.164063 16-16v-80c0-8.839844-7.164063-16-16-16h-16v-54.671875h160.527344zm-160.527344-116.800782v48h-32v-48zm265.3125 67.953126c-.019532 15.488281-12.578125 28.039062-28.066406 28.046874h-44.71875v-138.574218h44.71875c15.488281.007812 28.046874 12.558594 28.066406 28.046875zm0 0"></path><path d="m242.210938 479.550781h-147.34375c-8.835938 0-16 7.164063-16 16 0 8.835938 7.164062 16 16 16h147.34375c8.835937 0 16-7.164062 16-16 0-8.835937-7.164063-16-16-16zm0 0"></path><path d="m168.53125 104.625c8.835938 0 16-7.164062 16-16v-72.625c0-8.835938-7.164062-16-16-16s-16 7.164062-16 16v72.625c0 8.835938 7.164062 16 16 16zm0 0"></path><path d="m259.332031 104.625c8.835938 0 16-7.164062 16-16v-36.320312c0-8.835938-7.164062-16-16-16-8.835937 0-16 7.164062-16 16v36.320312c0 8.835938 7.164063 16 16 16zm0 0"></path><path d="m77.746094 104.625c8.839844 0 16-7.164062 16-16v-36.320312c0-8.835938-7.160156-16-16-16-8.835938 0-16 7.164062-16 16v36.320312c0 8.835938 7.164062 16 16 16zm0 0"></path></svg>